<?xml version="1.0" encoding="iso-8859-1"?>
<!-- Generator: Adobe Illustrator 19.0.0, SVG Export Plug-In . SVG Version: 6.00 Build 0)  -->
<svg version="1.1" id="Capa_1" xmlns="http://www.w3.org/2000/svg" xmlns:xlink="http://www.w3.org/1999/xlink" x="0px" y="0px"
	 viewBox="0 0 512.001 512.001" style="enable-background:new 0 0 512.001 512.001;" xml:space="preserve">
<g transform="translate(1 1)">
	<path style="fill:#FFE100;" d="M408.62,203.793c0-84.841-68.779-153.62-153.619-153.62s-153.62,68.779-153.62,153.62
		S170.16,357.413,255,357.413S408.62,288.634,408.62,203.793"/>
	<path style="fill:#FFA800;" d="M254.999,50.173c-4.319,0-8.568,0.299-12.802,0.649c78.832,6.52,140.818,72.448,140.818,152.97
		s-61.986,146.451-140.818,152.97c4.234,0.35,8.483,0.649,12.802,0.649c84.841,0,153.619-68.779,153.619-153.62
		S339.84,50.173,254.999,50.173"/>
	<path style="fill:#FFFFFF;" d="M254.999,50.173c4.327,0,8.568,0.299,12.802,0.649c-78.832,6.52-140.818,72.448-140.818,152.97
		s61.986,146.451,140.818,152.97c-4.234,0.35-8.483,0.649-12.802,0.649c-84.841,0-153.62-68.779-153.62-153.62
		S170.16,50.173,254.999,50.173"/>
	<g>
		<path style="fill:#00DA6C;" d="M254.999,50.173c35.392,0,67.9,12.094,93.879,32.209V7.501H161.122v74.881
			C187.1,62.266,219.608,50.173,254.999,50.173"/>
		<path style="fill:#00DA6C;" d="M254.999,357.413c-35.393,0-67.9-12.094-93.879-32.209v177.293l93.879-93.879l93.879,93.879
			V325.203C322.9,345.319,290.392,357.413,254.999,357.413"/>
	</g>
	<g>
		<path style="fill:#00AD55;" d="M323.275,7.501v58.913c9.055,4.532,17.666,9.823,25.603,15.968V7.501H323.275z"/>
		<path style="fill:#00AD55;" d="M323.275,341.172v135.723l25.603,25.603V325.205C340.941,331.35,332.33,336.641,323.275,341.172"/>
	</g>
	<g>
		<path style="fill:#FFFFFF;" d="M186.725,7.501v58.913c-9.055,4.532-17.657,9.823-25.603,15.968V7.501H186.725z"/>
		<path style="fill:#FFFFFF;" d="M186.725,341.172v135.723l-25.603,25.603V325.205C169.067,331.35,177.67,336.641,186.725,341.172"
			/>
	</g>
	<path d="M255,365.913c-89.393,0-162.121-72.727-162.121-162.121S165.607,41.671,255,41.671s162.121,72.727,162.121,162.121
		S344.394,365.913,255,365.913z M255,58.675c-80.018,0-145.118,65.1-145.118,145.118S174.982,348.911,255,348.911
		s145.118-65.1,145.118-145.118C400.119,123.774,335.019,58.675,255,58.675z"/>
	<path d="M348.879,90.884c-1.85,0-3.687-0.604-5.206-1.779c-25.709-19.908-56.372-30.43-88.674-30.43s-62.965,10.522-88.674,30.43
		c-2.564,1.986-6.037,2.338-8.948,0.911c-2.912-1.428-4.758-4.39-4.758-7.633V7.501c0-4.695,3.806-8.501,8.501-8.501h187.757
		c4.695,0,8.501,3.806,8.501,8.501v74.882c0,3.243-1.846,6.205-4.758,7.633C351.435,90.597,350.155,90.884,348.879,90.884z
		 M255,41.672c30.52,0,59.727,8.4,85.378,24.43v-50.1H169.623v50.1C195.273,50.072,224.48,41.672,255,41.672z"/>
	<path d="M348.88,510.999c-2.212,0-4.387-0.863-6.014-2.489l-87.867-87.868l-87.867,87.868c-2.43,2.431-6.087,3.161-9.264,1.842
		c-3.176-1.315-5.248-4.416-5.248-7.854V325.203c0-3.243,1.846-6.205,4.758-7.633c2.911-1.428,6.383-1.074,8.948,0.911
		c25.709,19.907,56.371,30.429,88.674,30.429s62.966-10.522,88.674-30.429c2.564-1.985,6.037-2.338,8.948-0.911
		c2.911,1.428,4.758,4.39,4.758,7.633v177.293c0,3.438-2.071,6.538-5.248,7.854C351.08,510.787,349.975,510.999,348.88,510.999z
		 M255,400.117c2.254,0,4.418,0.896,6.011,2.489l79.366,79.367v-140.49c-25.649,16.029-54.857,24.429-85.378,24.429
		s-59.728-8.399-85.378-24.429v140.491l79.366-79.367C250.583,401.013,252.745,400.117,255,400.117z"/>
	<polygon style="fill:#FFA800;" points="254.999,92.845 287.704,158.782 357.412,169.655 307.913,220.989 323.275,289.137 
		254.999,259.428 186.725,289.137 202.087,220.989 152.586,169.655 222.296,158.782 	"/>
	<path d="M186.726,297.638c-1.944,0-3.867-0.666-5.42-1.95c-2.467-2.041-3.579-5.296-2.875-8.42l14.354-63.676l-46.318-48.035
		c-2.202-2.283-2.949-5.604-1.938-8.61c1.011-3.007,3.612-5.201,6.748-5.69l65.359-10.194l30.748-61.993
		c1.435-2.893,4.386-4.724,7.616-4.724c3.229,0,6.181,1.83,7.616,4.724l30.748,61.993l65.359,10.194
		c3.135,0.489,5.736,2.682,6.748,5.69c1.011,3.006,0.264,6.327-1.938,8.61l-46.319,48.035l14.354,63.676
		c0.704,3.124-0.407,6.379-2.875,8.42c-2.468,2.043-5.874,2.522-8.81,1.244l-64.883-28.233l-64.883,28.233
		C189.027,297.406,187.873,297.638,186.726,297.638z M170.065,175.532l38.142,39.556c1.986,2.059,2.802,4.98,2.173,7.77
		l-11.675,51.795l52.904-23.02c2.163-0.941,4.622-0.941,6.784,0l52.904,23.02l-11.676-51.795c-0.629-2.791,0.188-5.711,2.173-7.77
		l38.143-39.556l-53.542-8.351c-2.728-0.425-5.08-2.149-6.307-4.623L255,111.976l-25.088,50.582
		c-1.227,2.473-3.578,4.197-6.306,4.623L170.065,175.532z"/>
</g>
<g>
</g>
<g>
</g>
<g>
</g>
<g>
</g>
<g>
</g>
<g>
</g>
<g>
</g>
<g>
</g>
<g>
</g>
<g>
</g>
<g>
</g>
<g>
</g>
<g>
</g>
<g>
</g>
<g>
</g>
</svg>
